<mxfile host="app.diagrams.net" modified="2023-07-19T19:16:52.379Z" agent="Mozilla/5.0 (X11; Ubuntu; Linux x86_64; rv:109.0) Gecko/20100101 Firefox/111.0" etag="htzm_RN_GsgGKw_VoTwT" version="21.6.3" type="github" pages="2">
  <diagram name="Page-1" id="2YBvvXClWsGukQMizWep">
    <mxGraphModel dx="724" dy="515" grid="1" gridSize="10" guides="1" tooltips="1" connect="1" arrows="1" fold="1" page="1" pageScale="1" pageWidth="850" pageHeight="1100" math="0" shadow="0">
      <root>
        <mxCell id="0" />
        <mxCell id="1" parent="0" />
        <mxCell id="juyCuhkm3_iVqgCEsl-c-5" value="&lt;div&gt;Sign in to &lt;br&gt;&lt;/div&gt;&lt;div&gt;Azure Cloud &lt;/div&gt;" style="rounded=0;whiteSpace=wrap;html=1;" vertex="1" parent="1">
          <mxGeometry x="20" y="10" width="140" height="110" as="geometry" />
        </mxCell>
        <mxCell id="juyCuhkm3_iVqgCEsl-c-7" value="Azure NAT&lt;br&gt;to grant access to private and public net.&lt;br&gt; " style="rounded=0;whiteSpace=wrap;html=1;" vertex="1" parent="1">
          <mxGeometry x="230" y="20" width="130" height="100" as="geometry" />
        </mxCell>
        <mxCell id="juyCuhkm3_iVqgCEsl-c-9" value="" style="endArrow=classic;html=1;rounded=0;" edge="1" parent="1">
          <mxGeometry width="50" height="50" relative="1" as="geometry">
            <mxPoint x="360" y="80" as="sourcePoint" />
            <mxPoint x="440" y="80" as="targetPoint" />
          </mxGeometry>
        </mxCell>
        <mxCell id="juyCuhkm3_iVqgCEsl-c-10" value="Azure Bastion" style="rounded=0;whiteSpace=wrap;html=1;" vertex="1" parent="1">
          <mxGeometry x="450" y="50" width="120" height="60" as="geometry" />
        </mxCell>
        <mxCell id="juyCuhkm3_iVqgCEsl-c-11" value="Authenticcation &lt;br&gt;Grants access to one of 2 controls " style="ellipse;shape=cloud;whiteSpace=wrap;html=1;" vertex="1" parent="1">
          <mxGeometry x="70" y="130" width="290" height="180" as="geometry" />
        </mxCell>
        <mxCell id="juyCuhkm3_iVqgCEsl-c-14" value="" style="curved=1;endArrow=classic;html=1;rounded=0;entryX=0.093;entryY=1.009;entryDx=0;entryDy=0;entryPerimeter=0;exitX=0.162;exitY=0.8;exitDx=0;exitDy=0;exitPerimeter=0;" edge="1" parent="1" source="juyCuhkm3_iVqgCEsl-c-11" target="juyCuhkm3_iVqgCEsl-c-5">
          <mxGeometry width="50" height="50" relative="1" as="geometry">
            <mxPoint x="100" y="280" as="sourcePoint" />
            <mxPoint x="50" y="250" as="targetPoint" />
            <Array as="points">
              <mxPoint x="50" y="300" />
              <mxPoint y="250" />
            </Array>
          </mxGeometry>
        </mxCell>
        <mxCell id="juyCuhkm3_iVqgCEsl-c-15" value="" style="curved=1;endArrow=classic;html=1;rounded=0;exitX=0;exitY=0;exitDx=0;exitDy=0;entryX=0.434;entryY=0.111;entryDx=0;entryDy=0;entryPerimeter=0;" edge="1" parent="1" source="juyCuhkm3_iVqgCEsl-c-7" target="juyCuhkm3_iVqgCEsl-c-11">
          <mxGeometry width="50" height="50" relative="1" as="geometry">
            <mxPoint x="190" y="260" as="sourcePoint" />
            <mxPoint x="240" y="210" as="targetPoint" />
            <Array as="points">
              <mxPoint x="200" y="30" />
            </Array>
          </mxGeometry>
        </mxCell>
        <mxCell id="juyCuhkm3_iVqgCEsl-c-17" value="Azure scaling groups &lt;br&gt;&lt;div&gt;= &lt;br&gt;&lt;/div&gt;&lt;div&gt;Azure monitor &lt;br&gt;AutoScale&lt;br&gt;&lt;/div&gt;" style="shape=step;perimeter=stepPerimeter;whiteSpace=wrap;html=1;fixedSize=1;" vertex="1" parent="1">
          <mxGeometry x="400" y="130" width="190" height="80" as="geometry" />
        </mxCell>
        <mxCell id="juyCuhkm3_iVqgCEsl-c-20" value="" style="edgeStyle=orthogonalEdgeStyle;rounded=0;orthogonalLoop=1;jettySize=auto;html=1;" edge="1" parent="1" source="juyCuhkm3_iVqgCEsl-c-18">
          <mxGeometry relative="1" as="geometry">
            <mxPoint x="380" y="80" as="targetPoint" />
            <Array as="points">
              <mxPoint x="375" y="270" />
              <mxPoint x="375" y="80" />
            </Array>
          </mxGeometry>
        </mxCell>
        <mxCell id="juyCuhkm3_iVqgCEsl-c-18" value="&lt;div&gt;Web Access&lt;/div&gt;&lt;div&gt;Firewall&lt;br&gt;&lt;/div&gt;" style="triangle;whiteSpace=wrap;html=1;" vertex="1" parent="1">
          <mxGeometry x="400" y="230" width="175" height="100" as="geometry" />
        </mxCell>
        <mxCell id="juyCuhkm3_iVqgCEsl-c-22" value="" style="shape=flexArrow;endArrow=classic;html=1;rounded=0;exitX=0.55;exitY=0.95;exitDx=0;exitDy=0;exitPerimeter=0;" edge="1" parent="1" source="juyCuhkm3_iVqgCEsl-c-11" target="juyCuhkm3_iVqgCEsl-c-23">
          <mxGeometry width="50" height="50" relative="1" as="geometry">
            <mxPoint x="130" y="400" as="sourcePoint" />
            <mxPoint x="140" y="400" as="targetPoint" />
          </mxGeometry>
        </mxCell>
        <mxCell id="juyCuhkm3_iVqgCEsl-c-23" value="DATA BASE " style="shape=cylinder3;whiteSpace=wrap;html=1;boundedLbl=1;backgroundOutline=1;size=15;" vertex="1" parent="1">
          <mxGeometry x="60" y="370" width="120" height="230" as="geometry" />
        </mxCell>
      </root>
    </mxGraphModel>
  </diagram>
  <diagram id="nvYwelVotmd-pGEGdjsA" name="Page-2">
    <mxGraphModel dx="724" dy="515" grid="1" gridSize="10" guides="1" tooltips="1" connect="1" arrows="1" fold="1" page="1" pageScale="1" pageWidth="850" pageHeight="1100" math="0" shadow="0">
      <root>
        <mxCell id="0" />
        <mxCell id="1" parent="0" />
      </root>
    </mxGraphModel>
  </diagram>
</mxfile>
